<svg width="16" height="14" viewBox="0 0 16 14" fill="none" xmlns="http://www.w3.org/2000/svg">
<path fill-rule="evenodd" clip-rule="evenodd" d="M9.62803 0.631417C10.158 0.411843 10.7259 0.298828 11.2996 0.298828C11.8732 0.298828 12.4412 0.411843 12.9711 0.631417C13.501 0.850991 13.9825 1.17282 14.388 1.57852C14.7936 1.98398 15.1153 2.46537 15.3349 2.99519C15.5544 3.52511 15.6674 4.0931 15.6674 4.66671C15.6674 5.24032 15.5544 5.80831 15.3349 6.33824C15.1153 6.86811 14.7935 7.34953 14.3879 7.75502C14.3878 7.75506 14.3879 7.75498 14.3879 7.75502L8.49453 13.6484C8.22117 13.9217 7.77795 13.9217 7.50458 13.6484L1.61125 7.75502C0.79218 6.93595 0.332031 5.82505 0.332031 4.66671C0.332031 3.50837 0.79218 2.39747 1.61125 1.5784C2.43032 0.759334 3.54122 0.299185 4.69956 0.299185C5.8579 0.299185 6.9688 0.759334 7.78787 1.5784L7.99956 1.7901L8.21113 1.57852C8.2111 1.57856 8.21117 1.57848 8.21113 1.57852C8.61662 1.17288 9.09816 0.85097 9.62803 0.631417ZM13.3978 2.56824C13.1223 2.29261 12.7952 2.07396 12.4352 1.92479C12.0751 1.77561 11.6893 1.69883 11.2996 1.69883C10.9099 1.69883 10.524 1.77561 10.1639 1.92479C9.80392 2.07396 9.47681 2.29261 9.20132 2.56824L8.49453 3.27502C8.22117 3.54839 7.77795 3.54839 7.50458 3.27502L6.79792 2.56835C6.2414 2.01183 5.4866 1.69918 4.69956 1.69918C3.91252 1.69918 3.15772 2.01183 2.6012 2.56835C2.04468 3.12487 1.73203 3.87967 1.73203 4.66671C1.73203 5.45375 2.04468 6.20855 2.6012 6.76507L7.99956 12.1634L13.3979 6.76507C13.6735 6.48957 13.8923 6.16235 14.0415 5.80233C14.1907 5.4423 14.2674 5.05642 14.2674 4.66671C14.2674 4.27701 14.1907 3.89112 14.0415 3.5311C13.8923 3.17107 13.6734 2.84374 13.3978 2.56824Z" fill="#313237"/>
</svg>
